<?xml version="1.0" standalone="no"?>
<!DOCTYPE svg PUBLIC "-//W3C//DTD SVG 20010904//EN"
 "http://www.w3.org/TR/2001/REC-SVG-20010904/DTD/svg10.dtd">
<svg version="1.0" xmlns="http://www.w3.org/2000/svg"
 width="256.000000pt" height="256.000000pt" viewBox="0 0 256.000000 256.000000"
 preserveAspectRatio="xMidYMid meet">
<metadata>
Created by potrace 1.14, written by Peter Selinger 2001-2017
</metadata>
<g transform="translate(0.000000,256.000000) scale(0.100000,-0.100000)"
fill="#000000" stroke="none">
<path d="M463 2125 c-11 -8 -28 -30 -37 -50 -10 -20 -23 -38 -29 -40 -111 -38
-136 -52 -183 -99 -28 -28 -81 -71 -117 -96 -73 -49 -98 -86 -90 -134 11 -70
39 -86 111 -62 122 40 159 50 187 47 116 -10 117 -10 182 -151 96 -207 119
-274 137 -393 10 -61 16 -68 130 -164 23 -19 26 -27 20 -65 -3 -24 -14 -73
-25 -110 -25 -86 -24 -89 11 -123 28 -27 33 -28 123 -28 107 1 156 19 214 81
32 34 34 35 53 17 13 -12 18 -25 14 -37 -9 -28 -7 -105 3 -123 8 -13 11 -13
30 4 12 11 28 30 37 42 l15 22 48 -38 c97 -78 108 -95 115 -170 4 -36 31 -45
60 -18 43 39 44 97 2 114 -14 5 -24 17 -24 28 0 12 -15 28 -37 42 -66 39 -123
90 -123 109 0 27 84 95 157 127 34 15 65 35 68 44 3 9 -6 41 -20 72 -13 31
-30 77 -36 101 -13 51 0 79 50 109 29 17 29 17 51 -13 12 -17 59 -62 105 -100
51 -43 82 -76 79 -84 -3 -7 -35 -37 -71 -66 -69 -55 -110 -121 -96 -157 10
-25 62 -101 75 -109 20 -13 28 22 24 103 l-4 81 97 67 c53 36 102 74 108 84 9
15 2 30 -47 91 -37 47 -56 79 -52 89 3 9 23 37 43 63 42 54 58 95 62 159 4 49
-10 127 -25 146 -11 14 10 27 62 38 90 20 141 -1 200 -80 58 -79 103 -100 210
-99 69 0 93 4 130 23 65 35 120 102 69 86 -41 -13 -114 -8 -153 10 -21 10 -77
55 -123 99 -47 45 -97 87 -111 95 -46 25 -108 15 -191 -31 -116 -63 -125 -68
-134 -68 -5 0 -28 13 -52 30 -66 45 -186 82 -282 86 -74 3 -93 0 -180 -32
-107 -38 -131 -44 -183 -48 -44 -3 -157 19 -176 35 -13 10 -10 14 15 25 17 7
43 24 58 38 l27 25 -56 0 c-51 -1 -109 18 -122 39 -3 5 12 14 34 21 39 12 80
51 80 78 0 12 -6 13 -27 7 -61 -18 -145 -9 -213 23 -103 48 -113 51 -174 49
-52 -2 -86 11 -70 27 9 9 6 95 -4 112 -7 13 -10 13 -29 0z m851 -1109 c70 -71
74 -87 28 -127 -21 -17 -52 -44 -70 -60 -19 -16 -38 -29 -42 -29 -9 0 -100
179 -100 197 0 15 71 54 128 72 2 1 27 -23 56 -53z m-368 -105 c5 -6 25 -13
44 -16 22 -4 50 -20 75 -45 l40 -40 -30 0 c-37 0 -50 -9 -59 -37 -4 -13 -12
-23 -18 -23 -5 0 -21 -9 -35 -20 -28 -22 -117 -28 -129 -9 -7 12 25 89 38 89
4 0 8 9 8 19 0 11 4 22 9 26 5 3 12 19 16 35 7 30 23 38 41 21z"/>
</g>
</svg>
